<svg xmlns="http://www.w3.org/2000/svg" fill="currentColor"  viewBox="0 0 420 160" width="100">
        <path d="M400.595,89.711C399.813,86.351 401.905,82.988 405.265,82.206C408.624,81.424 411.987,83.516 412.769,86.876C415.069,96.749 416.551,104.247 416.275,109.86C416.018,115.07 414.404,119.046 411.345,122.16C407.257,126.322 399.703,129.049 386.503,129.822C383.06,130.023 380.1,127.391 379.898,123.948C379.697,120.504 382.329,117.545 385.772,117.343C390.702,117.054 394.617,116.557 397.678,115.71C399.785,115.128 401.378,114.469 402.428,113.4C403.858,111.944 403.915,109.836 403.779,107.123C403.55,102.587 402.264,96.876 400.595,89.711Z"/>
        <path d="M25.169,34.165C24.36,34.314 23.564,34.619 22.741,34.609C22.364,34.605 20.192,34.581 18.402,32.779C18.129,32.504 16.554,30.92 16.577,28.292C16.58,27.915 16.599,25.746 18.407,23.953C18.595,23.767 19.454,22.915 21.257,22.287C31.952,18.567 117.33,-4.774 209.866,47.179C225.118,55.742 239.979,68.092 251.483,79.015C260.48,78.028 271.247,77.566 289.966,76.967C317.049,76.1 365.67,79.399 396.038,101.71C399.525,104.272 401.99,106.372 404.745,109.057C405.546,109.839 405.97,110.998 406.039,111.185C406.913,113.577 406.008,115.549 405.851,115.891C405.769,116.071 405.313,117.065 404.403,117.9C404.122,118.157 402.511,119.636 399.927,119.533C399.128,119.502 398.318,119.319 397.589,118.987C395.766,118.158 395.925,117.923 394.609,116.408C372.623,91.112 325.472,84.828 289.225,86.068C278.909,86.421 268.961,86.704 259.935,87.37C265.08,92.671 269.007,97.144 271.246,99.96C294.342,129.015 281.944,145.314 267.328,150.189C247.468,156.813 217.273,147.757 210.821,124.959C201.934,93.56 222.411,84.357 239.236,80.88C228.712,71.537 216.812,62.433 204.993,55.931C189.343,47.321 138.518,20.64 68.616,26.045C44.114,27.94 27.868,33.08 25.169,34.165ZM247.628,88.644C232.696,90.764 221.889,94.964 218.79,104.169C218.16,106.039 216.508,111.614 219.596,122.491C225.787,144.299 263.17,148.883 272.601,135.807C277.383,129.177 274.483,116.939 258.577,99.789C255.3,96.256 251.616,92.486 247.628,88.644Z"/>
</svg>