<?xml version="1.0" encoding="UTF-8"?>
<svg version="1.1" xmlns="http://www.w3.org/2000/svg" width="221" height="316">
<path d="M0 0 C7.73252665 5.29766616 12.99816668 13.50289546 14.734375 22.71484375 C15.78902616 32.94886612 13.8163051 40.89342022 9.046875 49.90234375 C3.11043899 57.1223335 -2.52851822 61.3888636 -11.56640625 64.0234375 C-14.53722304 65.88503471 -14.8892992 66.59334329 -16.19897461 69.70385742 C-16.71297066 70.92066948 -16.71297066 70.92066948 -17.23735046 72.1620636 C-18.8962299 76.28037476 -20.48424885 80.42047489 -22.03125 84.58203125 C-22.38200592 85.51885742 -22.73276184 86.45568359 -23.09414673 87.42089844 C-24.23729277 90.47622916 -25.37648109 93.53301889 -26.515625 96.58984375 C-27.31243758 98.72160111 -28.1094784 100.85327317 -28.90673828 102.98486328 C-32.90552225 113.682069 -36.88850977 124.38514608 -40.8671875 135.08984375 C-41.23082397 136.06801056 -41.59446045 137.04617737 -41.96911621 138.0539856 C-43.69422693 142.69515308 -45.4176946 147.33691669 -47.13769531 151.97998047 C-47.76088804 153.65989739 -48.3842535 155.33975025 -49.0078125 157.01953125 C-49.29805298 157.80246552 -49.58829346 158.58539978 -49.8873291 159.39205933 C-51.70477848 164.27359285 -53.59974248 169.11353535 -55.64111328 173.90673828 C-56.42886025 175.86862756 -56.42886025 175.86862756 -56.265625 178.71484375 C-49.02773763 173.79768989 -41.79158522 168.8779958 -34.55761719 163.95507812 C-32.51941087 162.56805787 -30.48103347 161.18128894 -28.44238281 159.79492188 C-23.74498163 156.59919274 -19.05473451 153.39355594 -14.37744141 150.16845703 C-12.97050092 149.20002655 -11.56131663 148.23484776 -10.14990234 147.27294922 C-8.18165289 145.92983706 -6.22262344 144.57427756 -4.265625 143.21484375 C-3.69561768 142.82949463 -3.12561035 142.44414551 -2.53833008 142.04711914 C0.87196712 139.65155999 3.1475648 137.59617045 4.734375 133.71484375 C4.8721259 130.13332038 4.75943881 126.69768256 4.52929688 123.12890625 C4.32097526 117.43816944 5.49507169 114.41954617 8.734375 109.71484375 C14.08723131 104.36198744 20.83669932 101.50417743 28.359375 101.21484375 C34.50610981 101.48917501 38.22453154 103.03651543 42.421875 107.515625 C47.10285695 113.31059063 49.00883718 118.52993521 48.671875 126.02734375 C47.74170908 133.72235274 45.00416402 140.23081403 38.984375 145.27734375 C34.65887397 148.12604125 30.87463056 148.95888 25.734375 148.71484375 C24.83976563 148.45517822 23.94515625 148.1955127 23.0234375 147.92797852 C19.7406272 146.98818606 17.15420687 146.5304565 13.734375 146.71484375 C9.39048715 149.32736262 6.30669782 152.862123 2.984375 156.65234375 C1.22081778 158.55920613 -0.54477367 160.46418939 -2.3125 162.3671875 C-3.14982666 163.28717529 -3.98715332 164.20716309 -4.84985352 165.1550293 C-7.59181315 168.06048122 -10.4828065 170.67031872 -13.53173828 173.24584961 C-15.88966027 175.24354274 -18.0930569 177.39403485 -20.328125 179.52734375 C-30.8978285 189.13217805 -44.06318106 198.48837251 -58.1640625 201.6484375 C-58.82599609 201.79941895 -59.48792969 201.95040039 -60.16992188 202.10595703 C-62.02422071 202.50245354 -63.8910011 202.83923582 -65.7578125 203.171875 C-73.84616123 206.72966759 -77.87048924 216.14338083 -81.953125 223.58984375 C-95.78546701 248.23150762 -111.27556749 271.54084828 -133.265625 289.71484375 C-135.28345468 291.55095518 -137.30084264 293.38724398 -139.30859375 295.234375 C-143.45060414 298.36775212 -147.73596323 299.12719613 -152.828125 299.65234375 C-153.94316406 299.78511719 -155.05820313 299.91789062 -156.20703125 300.0546875 C-159.265625 299.71484375 -159.265625 299.71484375 -161.79296875 297.59375 C-163.265625 294.71484375 -163.265625 294.71484375 -162.77734375 291.68359375 C-161.18907128 288.5645057 -159.60807254 286.61851163 -157.078125 284.21484375 C-155.86962891 283.05662109 -155.86962891 283.05662109 -154.63671875 281.875 C-152.67156428 280.08466982 -150.68340564 278.35234487 -148.640625 276.65234375 C-145.45673446 273.9869308 -142.80135453 271.0404294 -140.12109375 267.875 C-138.88595944 266.43704363 -137.61712326 265.02735393 -136.31640625 263.6484375 C-123.67706092 250.21475254 -113.41660598 234.67308564 -104.265625 218.71484375 C-103.84958008 217.99119629 -103.43353516 217.26754883 -103.00488281 216.52197266 C-101.82469587 214.44939217 -100.66489382 212.3672024 -99.515625 210.27734375 C-99.16773926 209.65633789 -98.81985352 209.03533203 -98.46142578 208.39550781 C-97.40948838 206.4875989 -97.40948838 206.4875989 -96.265625 203.71484375 C-97.49114382 200.03828728 -98.80485435 199.35522825 -101.890625 197.08984375 C-116.7187854 185.44667939 -122.53013392 168.56118263 -126.265625 150.71484375 C-126.53181641 149.48878418 -126.79800781 148.26272461 -127.07226562 146.99951172 C-129.31141174 136.06301552 -129.5454902 125.5928172 -129.265625 114.46484375 C-129.01496544 104.41061045 -128.83897403 95.15940246 -131.57275391 85.36938477 C-133.3536848 78.54624819 -132.80680383 71.86795591 -129.265625 65.71484375 C-125.36808971 60.66248318 -120.50844817 56.37829193 -114.265625 54.71484375 C-105.00554359 53.61689226 -96.90486055 54.01754471 -89.265625 59.71484375 C-84.96088414 63.66010729 -81.67008823 67.83199678 -81.05078125 73.77734375 C-80.71445738 81.74149292 -83.65344007 87.59564352 -88.45703125 93.80078125 C-91.0353126 96.52941594 -93.98138276 98.37206073 -97.1484375 100.35546875 C-101.8270417 103.35944341 -104.44140058 106.17701502 -105.86645508 111.57592773 C-109.29791882 129.96311662 -104.92402467 148.46262306 -98.328125 165.52734375 C-98.00457031 166.36998779 -97.68101563 167.21263184 -97.34765625 168.08081055 C-94.70871994 174.52434426 -91.10709796 178.82052845 -85.265625 182.71484375 C-84.275625 183.04484375 -83.285625 183.37484375 -82.265625 183.71484375 C-82.36786377 182.50924805 -82.36786377 182.50924805 -82.47216797 181.27929688 C-82.20238402 176.62345098 -80.70296709 172.97515678 -78.9609375 168.68359375 C-78.61017151 167.79570663 -78.25940552 166.90781952 -77.89801025 165.99302673 C-76.73819387 163.06317319 -75.56432888 160.13915831 -74.390625 157.21484375 C-73.5765535 155.16457365 -72.76358172 153.11386658 -71.95166016 151.06274414 C-70.25528098 146.77985036 -68.55411902 142.49890248 -66.84960938 138.21923828 C-63.12323985 128.85267873 -59.45298365 119.46420305 -55.78363037 110.07519531 C-54.67675104 107.24472395 -53.56748171 104.41520114 -52.45751953 101.5859375 C-50.73203945 97.18666462 -49.01825705 92.78293645 -47.30700684 88.37811279 C-46.21677169 85.58990445 -45.10932021 82.80888664 -44.00097656 80.02783203 C-43.26851267 78.16453246 -42.53640482 76.30109288 -41.8046875 74.4375 C-41.46376068 73.59392441 -41.12283386 72.75034882 -40.77157593 71.88121033 C-38.40400578 65.79938607 -36.14802192 59.29803608 -38.15625 52.859375 C-38.60484375 52.08980469 -39.0534375 51.32023437 -39.515625 50.52734375 C-40.21171875 49.28017578 -40.21171875 49.28017578 -40.921875 48.0078125 C-41.3653125 47.25113281 -41.80875 46.49445312 -42.265625 45.71484375 C-47.19062158 36.21663605 -47.81022856 26.75287488 -44.640625 16.40234375 C-41.54546132 8.14130829 -36.36772234 0.92783768 -28.42578125 -3.25390625 C-18.49215471 -7.50274453 -9.16259188 -5.19740126 0 0 Z " fill="#E1532D" transform="translate(168.265625,9.28515625)"/>
</svg>
