<svg stroke="currentColor" width="22px" height="22px" xmlns="http://www.w3.org/2000/svg" xmlns:xlink="http://www.w3.org/1999/xlink" id="ekq0ReAMJZU1" viewBox="0 0 24 24" shape-rendering="geometricPrecision" text-rendering="geometricPrecision" project-id="fe9d83e6a1f94929812ea18c302ac157" export-id="4115796819694b59983c0288a9627e1a" cached="false">
<style><![CDATA[
#ekq0ReAMJZU1{pointer-events: all}button:hover #ekq0ReAMJZU2_tr {animation: ekq0ReAMJZU2_tr__tr 3000ms linear 1 normal forwards}@keyframes ekq0ReAMJZU2_tr__tr { 0% {transform: translate(12px,12px) rotate(0deg)} 4.333333% {transform: translate(12px,12px) rotate(-10.000834deg)} 8.333333% {transform: translate(12px,12px) rotate(17.358001deg)} 12.666667% {transform: translate(12px,12px) rotate(-18.32002deg)} 17% {transform: translate(12px,12px) rotate(5.490059deg)} 21.333333% {transform: translate(12px,12px) rotate(-17.872187deg)} 25.333333% {transform: translate(12px,12px) rotate(9.572147deg)} 29.333333% {transform: translate(12px,12px) rotate(-11.473123deg)} 33.333333% {transform: translate(12px,12px) rotate(0deg)} 100% {transform: translate(12px,12px) rotate(0deg)}} button:hover #ekq0ReAMJZU9_tr {animation: ekq0ReAMJZU9_tr__tr 3000ms linear 1 normal forwards}@keyframes ekq0ReAMJZU9_tr__tr { 0% {transform: translate(135.33781px,207.03926px) rotate(720deg);animation-timing-function: cubic-bezier(0.415,0.08,0.115,0.955)} 100% {transform: translate(135.33781px,207.03926px) rotate(439.480519deg)}} button:hover #ekq0ReAMJZU10_tr {animation: ekq0ReAMJZU10_tr__tr 3000ms linear 1 normal forwards}@keyframes ekq0ReAMJZU10_tr__tr { 0% {transform: translate(11.12px,29.9px) rotate(-720deg);animation-timing-function: cubic-bezier(0.415,0.08,0.115,0.955)} 100% {transform: translate(11.12px,29.9px) rotate(-439.480519deg)}}
]]></style>
<defs><linearGradient id="ekq0ReAMJZU3-fill" x1="0.5" y1="0" x2="0.5" y2="1" spreadMethod="pad" gradientUnits="objectBoundingBox" gradientTransform="translate(0 0)"><stop id="ekq0ReAMJZU3-fill-0" offset="0%" stop-color="rgba(255,255,255,0)"/><stop id="ekq0ReAMJZU3-fill-1" offset="100%" stop-color="#010022"/></linearGradient></defs><g id="ekq0ReAMJZU2_tr" transform="translate(12,12) rotate(0)"><path d="M21.75,6.75v10.5c0,1.242641-1.007359,2.25-2.25,2.25h-15c-1.242641,0-2.25-1.007359-2.25-2.25v-10.5m19.5,0c0-1.242641-1.007359-2.25-2.25-2.25h-15c-1.242641,0-2.25,1.007359-2.25,2.25m19.5,0v.243c.000087.781099-.404937,1.506357-1.07,1.916l-7.5,4.615c-.723546.445666-1.636454.445666-2.36,0L3.32,8.91c-.665063-.409643-1.070087-1.134901-1.07-1.916v-.244" transform="translate(-12,-12)" fill="none" stroke-width="1.5" stroke-linecap="round" stroke-linejoin="round"/></g></svg>