<svg fill="currentColor" enable-background="new 0 0 512 512" height="30" viewBox="0 0 512 512" width="30" xmlns="http://www.w3.org/2000/svg"><g><path d="m25.695 485.784c13.958 13.953 37.971 14.711 52.16.521l145.868-145.868c10.025 3.835 20.905 5.942 32.277 5.942 49.91 0 90.38-40.47 90.38-90.38 0-13.92-3.15-27.1-8.77-38.87l-69.08 69.08h-24.99l-17.67-17.68v-24.98l69.11-69.11c-11.8-5.65-25.02-8.82-38.98-8.82-49.91 0-90.38 40.47-90.38 90.38 0 11.373 2.107 22.252 5.942 32.277l-145.867 145.869c-14.26 14.26-14.26 37.379 0 51.639z"/><path d="m512 288v-64l-34.95-4.37c-2.42-14.76-6.27-29.03-11.41-42.67l28.06-21.25-32-55.42-32.47 13.7c-9.36-11.4-19.82-21.86-31.22-31.22l13.7-32.47-55.42-32-21.25 28.06c-13.64-5.14-27.91-8.99-42.67-11.41l-4.37-34.95h-64l-4.37 34.95c-14.76 2.42-29.03 6.27-42.67 11.41l-21.25-28.06-55.42 32 13.7 32.47c-11.4 9.36-21.86 19.82-31.22 31.22l-32.47-13.7-32 55.42 28.06 21.25c-5.14 13.64-8.99 27.91-11.41 42.67l-34.95 4.37v64l34.95 4.37c2.42 14.76 6.27 29.03 11.41 42.67l-28.06 21.25 15.675 27.148 67.594-67.594c-7.223-18.57-11.194-38.751-11.194-59.844 0-91.326 74.299-165.625 165.625-165.625s165.625 74.299 165.625 165.625-74.299 165.625-165.625 165.625c-21.093 0-41.272-3.973-59.841-11.197l-67.596 67.596 27.147 15.676 21.25-28.06c13.64 5.14 27.91 8.99 42.67 11.41l4.37 34.95h64l4.37-34.95c14.76-2.42 29.03-6.27 42.67-11.41l21.25 28.06 55.42-32-13.7-32.47c11.4-9.36 21.86-19.82 31.22-31.22l32.47 13.7 32-55.42-28.06-21.25c5.14-13.64 8.99-27.91 11.41-42.67z"/></g></svg>