<?xml version="1.0" standalone="no"?>
<!DOCTYPE svg PUBLIC "-//W3C//DTD SVG 20010904//EN"
 "http://www.w3.org/TR/2001/REC-SVG-20010904/DTD/svg10.dtd">
<svg version="1.0" xmlns="http://www.w3.org/2000/svg"
 width="20" height="20" viewBox="40 0 250 300"
 preserveAspectRatio="xMidYMid meet">

<g transform="translate(0.000000,312.000000) scale(0.100000,-0.100000)"
fill="#E1532D" stroke="none">
<path d="M1413 3045 c-63 -32 -107 -80 -142 -154 -22 -48 -26 -70 -26 -156 0
-86 3 -105 22 -135 74 -117 81 -156 44 -255 -12 -33 -114 -296 -226 -585 -112
-289 -206 -537 -209 -552 -8 -37 -29 -35 -81 7 -50 41 -88 115 -133 256 -41
128 -56 230 -50 347 6 123 24 165 92 209 118 77 171 158 164 248 -6 71 -43
126 -110 164 -99 57 -212 48 -295 -24 -78 -67 -100 -150 -67 -263 17 -58 20
-125 15 -327 -5 -177 48 -435 117 -570 36 -71 109 -159 166 -200 31 -22 56
-43 56 -48 0 -20 -96 -193 -169 -303 -111 -171 -225 -310 -378 -462 -73 -73
-133 -138 -133 -145 0 -7 7 -23 16 -36 16 -22 22 -23 75 -17 33 3 75 12 94 20
49 21 294 264 380 377 39 52 127 189 195 303 119 200 162 256 199 256 30 0
158 47 228 84 110 58 197 129 390 320 l182 179 62 -18 c131 -36 224 17 265
151 28 95 13 155 -60 230 -53 55 -66 60 -141 55 -48 -3 -152 -58 -177 -94 -20
-28 -23 -44 -23 -129 0 -137 31 -105 -369 -380 -289 -198 -265 -183 -272 -165
-6 17 401 1113 423 1138 8 9 40 26 73 38 72 26 147 95 186 171 26 49 29 65 29
150 0 82 -4 103 -26 151 -51 109 -152 179 -269 186 -56 4 -73 1 -117 -22z"/>
</g>
</svg>
